<svg xmlns="http://www.w3.org/2000/svg" xmlns:xlink="http://www.w3.org/1999/xlink" width="814" height="1608" viewBox="0 0 814 1608">
  <defs>
    <linearGradient id="linear-gradient" x1="0.25" x2="0.25" y2="1" gradientUnits="objectBoundingBox">
      <stop offset="0"/>
      <stop offset="0.5" stop-color="#424242" stop-opacity="0"/>
      <stop offset="1"/>
    </linearGradient>
    <linearGradient id="linear-gradient-2" x1="0.25" x2="0.25" y2="1" gradientUnits="objectBoundingBox">
      <stop offset="0" stop-opacity="0.541"/>
      <stop offset="0.5" stop-color="#424242" stop-opacity="0"/>
      <stop offset="1" stop-opacity="0.541"/>
    </linearGradient>
    <linearGradient id="linear-gradient-13" x1="1" y1="0.5" x2="0" y2="0.5" gradientUnits="objectBoundingBox">
      <stop offset="0" stop-color="#e9988b"/>
      <stop offset="1" stop-color="#a74a3b"/>
    </linearGradient>
    <linearGradient id="linear-gradient-17" y1="0.5" x2="1" y2="0.5" gradientUnits="objectBoundingBox">
      <stop offset="0" stop-color="#1b568e" stop-opacity="0.357"/>
      <stop offset="0.4" stop-color="#1c4f80"/>
      <stop offset="0.496" stop-color="#1b5083" stop-opacity="0.027"/>
      <stop offset="0.605" stop-color="#1e619f"/>
      <stop offset="1" stop-color="#1b4a78" stop-opacity="0.322"/>
    </linearGradient>
    <linearGradient id="linear-gradient-18" x1="0.5" y1="0.5" x2="0" y2="0.5" gradientUnits="objectBoundingBox">
      <stop offset="0" stop-color="#727272" stop-opacity="0"/>
      <stop offset="1" stop-color="#727272" stop-opacity="0.651"/>
    </linearGradient>
    <linearGradient id="linear-gradient-20" x2="1" gradientUnits="objectBoundingBox">
      <stop offset="0" stop-color="#383838" stop-opacity="0.427"/>
      <stop offset="0.5" stop-color="#383838"/>
      <stop offset="1" stop-color="#383838" stop-opacity="0.431"/>
    </linearGradient>
    <linearGradient id="linear-gradient-22" x1="0.055" y1="0.067" x2="1" y2="1" gradientUnits="objectBoundingBox">
      <stop offset="0" stop-color="#ff80d9"/>
      <stop offset="1" stop-color="#7951ff"/>
    </linearGradient>
  </defs>
  <g id="Group_7848" data-name="Group 7848" transform="translate(5137 3909)">
    <g id="body" transform="translate(-5137 -3909)">
      <g id="Rectangle_5" data-name="Rectangle 5">
        <path id="Rectangle_5-2" data-name="Rectangle 5" d="M2,0H8A0,0,0,0,1,8,0V56a0,0,0,0,1,0,0H2a2,2,0,0,1-2-2V2A2,2,0,0,1,2,0Z" transform="translate(0 222)" fill="#f2ac9f"/>
        <path id="Rectangle_5-3" data-name="Rectangle 5" d="M2,0H8A0,0,0,0,1,8,0V56a0,0,0,0,1,0,0H2a2,2,0,0,1-2-2V2A2,2,0,0,1,2,0Z" transform="translate(0 222)" fill="none"/>
        <path id="Rectangle_5-4" data-name="Rectangle 5" d="M2,0H8A0,0,0,0,1,8,0V56a0,0,0,0,1,0,0H2a2,2,0,0,1-2-2V2A2,2,0,0,1,2,0Z" transform="translate(0 222)" fill="url(#linear-gradient)"/>
        <path id="Rectangle_5-5" data-name="Rectangle 5" d="M2,0H8A0,0,0,0,1,8,0V56a0,0,0,0,1,0,0H2a2,2,0,0,1-2-2V2A2,2,0,0,1,2,0Z" transform="translate(0 222)" fill="url(#linear-gradient-2)"/>
        <path id="Rectangle_5-6" data-name="Rectangle 5" d="M2,0H8A0,0,0,0,1,8,0V56a0,0,0,0,1,0,0H2a2,2,0,0,1-2-2V2A2,2,0,0,1,2,0Z" transform="translate(0 222)" fill="url(#linear-gradient-2)"/>
      </g>
      <g id="Rectangle_5_Copy_2" data-name="Rectangle 5 Copy 2">
        <path id="Rectangle_5_Copy_2-2" data-name="Rectangle 5 Copy 2" d="M4,0H8A0,0,0,0,1,8,0V110a0,0,0,0,1,0,0H4a4,4,0,0,1-4-4V4A4,4,0,0,1,4,0Z" transform="translate(0 330)" fill="#f2ac9f"/>
        <path id="Rectangle_5_Copy_2-3" data-name="Rectangle 5 Copy 2" d="M4,0H8A0,0,0,0,1,8,0V110a0,0,0,0,1,0,0H4a4,4,0,0,1-4-4V4A4,4,0,0,1,4,0Z" transform="translate(0 330)" fill="none"/>
        <path id="Rectangle_5_Copy_2-4" data-name="Rectangle 5 Copy 2" d="M4,0H8A0,0,0,0,1,8,0V110a0,0,0,0,1,0,0H4a4,4,0,0,1-4-4V4A4,4,0,0,1,4,0Z" transform="translate(0 330)" fill="url(#linear-gradient)"/>
        <path id="Rectangle_5_Copy_2-5" data-name="Rectangle 5 Copy 2" d="M4,0H8A0,0,0,0,1,8,0V110a0,0,0,0,1,0,0H4a4,4,0,0,1-4-4V4A4,4,0,0,1,4,0Z" transform="translate(0 330)" fill="url(#linear-gradient-2)"/>
        <path id="Rectangle_5_Copy_2-6" data-name="Rectangle 5 Copy 2" d="M4,0H8A0,0,0,0,1,8,0V110a0,0,0,0,1,0,0H4a4,4,0,0,1-4-4V4A4,4,0,0,1,4,0Z" transform="translate(0 330)" fill="url(#linear-gradient-2)"/>
      </g>
      <g id="Rectangle_5_Copy_3" data-name="Rectangle 5 Copy 3">
        <path id="Rectangle_5_Copy_3-2" data-name="Rectangle 5 Copy 3" d="M0,0H4A4,4,0,0,1,8,4V172a4,4,0,0,1-4,4H0a0,0,0,0,1,0,0V0A0,0,0,0,1,0,0Z" transform="translate(806 366)" fill="#f2ac9f"/>
        <path id="Rectangle_5_Copy_3-3" data-name="Rectangle 5 Copy 3" d="M0,0H4A4,4,0,0,1,8,4V172a4,4,0,0,1-4,4H0a0,0,0,0,1,0,0V0A0,0,0,0,1,0,0Z" transform="translate(806 366)" fill="none"/>
        <path id="Rectangle_5_Copy_3-4" data-name="Rectangle 5 Copy 3" d="M0,0H4A4,4,0,0,1,8,4V172a4,4,0,0,1-4,4H0a0,0,0,0,1,0,0V0A0,0,0,0,1,0,0Z" transform="translate(806 366)" fill="url(#linear-gradient)"/>
        <path id="Rectangle_5_Copy_3-5" data-name="Rectangle 5 Copy 3" d="M0,0H4A4,4,0,0,1,8,4V172a4,4,0,0,1-4,4H0a0,0,0,0,1,0,0V0A0,0,0,0,1,0,0Z" transform="translate(806 366)" fill="url(#linear-gradient-2)"/>
        <path id="Rectangle_5_Copy_3-6" data-name="Rectangle 5 Copy 3" d="M0,0H4A4,4,0,0,1,8,4V172a4,4,0,0,1-4,4H0a0,0,0,0,1,0,0V0A0,0,0,0,1,0,0Z" transform="translate(806 366)" fill="url(#linear-gradient-2)"/>
      </g>
      <g id="Rectangle_5_Copy_2-7" data-name="Rectangle 5 Copy 2">
        <path id="Rectangle_5_Copy_2-8" data-name="Rectangle 5 Copy 2" d="M4,0H8A0,0,0,0,1,8,0V110a0,0,0,0,1,0,0H4a4,4,0,0,1-4-4V4A4,4,0,0,1,4,0Z" transform="translate(0 468)" fill="#f2ac9f"/>
        <path id="Rectangle_5_Copy_2-9" data-name="Rectangle 5 Copy 2" d="M4,0H8A0,0,0,0,1,8,0V110a0,0,0,0,1,0,0H4a4,4,0,0,1-4-4V4A4,4,0,0,1,4,0Z" transform="translate(0 468)" fill="none"/>
        <path id="Rectangle_5_Copy_2-10" data-name="Rectangle 5 Copy 2" d="M4,0H8A0,0,0,0,1,8,0V110a0,0,0,0,1,0,0H4a4,4,0,0,1-4-4V4A4,4,0,0,1,4,0Z" transform="translate(0 468)" fill="url(#linear-gradient)"/>
        <path id="Rectangle_5_Copy_2-11" data-name="Rectangle 5 Copy 2" d="M4,0H8A0,0,0,0,1,8,0V110a0,0,0,0,1,0,0H4a4,4,0,0,1-4-4V4A4,4,0,0,1,4,0Z" transform="translate(0 468)" fill="url(#linear-gradient-2)"/>
        <path id="Rectangle_5_Copy_2-12" data-name="Rectangle 5 Copy 2" d="M4,0H8A0,0,0,0,1,8,0V110a0,0,0,0,1,0,0H4a4,4,0,0,1-4-4V4A4,4,0,0,1,4,0Z" transform="translate(0 468)" fill="url(#linear-gradient-2)"/>
      </g>
      <g id="base">
        <rect id="base-2" data-name="base" width="804" height="1608" rx="132" transform="translate(4)" fill="none"/>
        <rect id="base-3" data-name="base" width="804" height="1608" rx="132" transform="translate(4)" fill="#f2ac9f"/>
      </g>
      <g id="Rectangle_4" data-name="Rectangle 4">
        <rect id="Rectangle_4-2" data-name="Rectangle 4" width="16" height="16" transform="translate(4 158)" fill="url(#linear-gradient-13)"/>
        <rect id="Rectangle_4-3" data-name="Rectangle 4" width="16" height="16" transform="translate(4 158)" fill="none"/>
      </g>
      <g id="Rectangle_4_Copy" data-name="Rectangle 4 Copy">
        <rect id="Rectangle_4_Copy-2" data-name="Rectangle 4 Copy" width="16" height="16" transform="translate(4 1434)" fill="url(#linear-gradient-13)"/>
        <rect id="Rectangle_4_Copy-3" data-name="Rectangle 4 Copy" width="16" height="16" transform="translate(4 1434)" fill="none"/>
      </g>
      <g id="Rectangle_4_Copy_2" data-name="Rectangle 4 Copy 2">
        <rect id="Rectangle_4_Copy_2-2" data-name="Rectangle 4 Copy 2" width="14" height="16" transform="translate(794 1434)" fill="url(#linear-gradient-13)"/>
        <rect id="Rectangle_4_Copy_2-3" data-name="Rectangle 4 Copy 2" width="14" height="16" transform="translate(794 1434)" fill="none"/>
      </g>
      <g id="Rectangle_4_Copy_3" data-name="Rectangle 4 Copy 3">
        <rect id="Rectangle_4_Copy_3-2" data-name="Rectangle 4 Copy 3" width="14" height="16" transform="translate(794 158)" fill="url(#linear-gradient-13)"/>
        <rect id="Rectangle_4_Copy_3-3" data-name="Rectangle 4 Copy 3" width="14" height="16" transform="translate(794 158)" fill="none"/>
      </g>
      <g id="base_copy" data-name="base copy" transform="translate(20 16)" stroke="#262525" stroke-miterlimit="10" stroke-width="9">
        <rect width="774" height="1576" rx="114" stroke="none"/>
        <rect x="4.5" y="4.5" width="765" height="1567" rx="109.5" fill="none"/>
      </g>
      <rect id="Rectangle_3" data-name="Rectangle 3" width="94" height="14" rx="7" transform="translate(360 64)" fill="#121212"/>
      <g id="Group" transform="translate(478 60)">
        <g id="Oval" fill="none" stroke="#121212" stroke-miterlimit="10" stroke-width="2.5">
          <circle cx="10" cy="10" r="10" stroke="none"/>
          <circle cx="10" cy="10" r="8.75" fill="none"/>
        </g>
        <path id="Combined_Shape" data-name="Combined Shape" d="M9.018,6.38a2.071,2.071,0,0,1-1.393-.545A1.962,1.962,0,0,1,7,4.376v-.9a1.962,1.962,0,0,1,.625-1.459,2.072,2.072,0,0,1,1.393-.545,1.952,1.952,0,0,1,1.509.713L12,3.924,10.527,5.666A1.953,1.953,0,0,1,9.018,6.38Zm-6.035,0a1.954,1.954,0,0,1-1.51-.713L0,3.924,1.472,2.182a1.954,1.954,0,0,1,1.51-.713A1.992,1.992,0,0,1,5,3.472v.9a1.962,1.962,0,0,1-.625,1.459A2.072,2.072,0,0,1,2.983,6.38Z" transform="translate(4 6.076)" fill="url(#linear-gradient-17)"/>
      </g>
      <path id="Combined_Shape-2" data-name="Combined Shape" d="M0,1429.3V87.531C0,55.634,15.822,10.334,45.032,0,19.524,22.668,11.314,63.076,12.212,87.531V1429.3c-.9,24.456,7.312,64.864,32.819,87.532C15.822,1506.494,0,1461.2,0,1429.3Z" transform="translate(28 46)" fill="url(#linear-gradient-18)"/>
      <path id="Combined_Shape_Copy_4" data-name="Combined Shape Copy 4" d="M0,1429.3V87.531C0,55.634-15.822,10.334-45.032,0c25.508,22.668,33.718,63.076,32.819,87.531V1429.3c.9,24.456-7.312,64.864-32.819,87.532C-15.822,1506.494,0,1461.2,0,1429.3Z" transform="translate(787.031 46)" fill="url(#linear-gradient-18)"/>
      <path id="Combined_Shape-3" data-name="Combined Shape" d="M620.761,12.212H344.732V0H620.761c31.9,0,59.286,12.819,68.7,31.643C669.8,12.212,645.215,11.314,620.761,12.212ZM68.7,0H344.732V12.212H68.7c-24.456-.9-49.036,0-68.7,19.431C9.417,12.819,36.806,0,68.7,0Z" transform="translate(62 24)" fill="url(#linear-gradient-20)"/>
      <path id="Combined_Shape_Copy_2" data-name="Combined Shape Copy 2" d="M620.761-12.212H344.732V0H620.761c31.9,0,59.286-12.819,68.7-31.643C669.8-12.212,645.215-11.314,620.761-12.212ZM68.7,0H344.732V-12.212H68.7c-24.456.9-49.036,0-68.7-19.431C9.417-12.819,36.806,0,68.7,0Z" transform="translate(62 1583.643)" fill="url(#linear-gradient-20)"/>
    </g>
    <rect id="home" width="248" height="9" rx="4.5" transform="translate(-4853 -2381)"/>
    <path id="screen" d="M141.992,0C146.712,0,152,5.288,152,10.008h0c0,24.179,19.49,44.064,46,44.064H492c26.51,0,44-15.859,44-44.064h0C536,5.285,541.284,0,546.008,0H620a70.047,70.047,0,0,1,70,70.094V1423.906A70.047,70.047,0,0,1,620,1494H70a70.047,70.047,0,0,1-70-70.094V70.094A70.047,70.047,0,0,1,70,0Z" transform="translate(-5075 -3852)" fill="url(#linear-gradient-22)"/>
  </g>
</svg>
